<svg width="12" height="12" viewBox="0 0 12 12" xmlns="http://www.w3.org/2000/svg"><title>shared-link-icon</title><path d="M11.177 4.86c1.14-1.138 1.035-2.896 0-4.035-1.08-1.08-2.852-1.08-3.932 0l-.93.93c-.105.105-.21.518 0 .726.103.21.517.31.725 0l.93-.93c1.684-1.683 4.143.812 2.588 2.588-.757.843-1.59 1.616-2.402 2.404-.768.742-1.837 1.013-2.67.183-.103-.104-.232-.128-.437-.135-.184-.007-.31.095-.4.174-.216.215-.173.563.008.79 1.035 1.036 2.793 1.14 3.932 0l2.587-2.693zm-7.76-.413C2.382 5.38 1.76 6.207.83 7.14c-1.14 1.138-1.036 2.896 0 3.93 1.138 1.14 2.897 1.036 3.932 0l.93-.826c.105-.104.202-.183.245-.407.054-.23-.068-.323-.14-.42-.222-.222-.638-.086-.828.104l-.726.726c-.725.622-2.174.726-2.69.104-.623-.827-.623-1.758 0-2.587.93-1.035 1.55-1.758 2.586-2.692.827-.826 1.84-.7 2.588 0 .138.132.21.17.418.275.185.054.305-.075.41-.17.223-.22.087-.637-.103-.827-.517-.517-1.24-.827-1.966-.827-.725.1-1.45.41-2.07.927z" fill="#3D464D" fill-rule="evenodd"/></svg>